<?xml version="1.0" encoding="UTF-8" standalone="no"?>
<!-- Created with Inkscape (http://www.inkscape.org/) -->

<svg
   xmlns:dc="http://purl.org/dc/elements/1.1/"
   xmlns:cc="http://creativecommons.org/ns#"
   xmlns:rdf="http://www.w3.org/1999/02/22-rdf-syntax-ns#"
   xmlns:svg="http://www.w3.org/2000/svg"
   xmlns="http://www.w3.org/2000/svg"
   xmlns:xlink="http://www.w3.org/1999/xlink"
   xmlns:sodipodi="http://sodipodi.sourceforge.net/DTD/sodipodi-0.dtd"
   xmlns:inkscape="http://www.inkscape.org/namespaces/inkscape"
   width="640"
   height="480"
   id="svg2"
   version="1.1"
   inkscape:version="0.47 r22583"
   sodipodi:docname="space.svg"
   inkscape:export-filename="/home/njones/space.png"
   inkscape:export-xdpi="90"
   inkscape:export-ydpi="90">
  <defs
     id="defs4">
    <linearGradient
       id="linearGradient3773">
      <stop
         style="stop-color:#525252;stop-opacity:0.24369748;"
         offset="0"
         id="stop3775" />
      <stop
         style="stop-color:#333333;stop-opacity:0;"
         offset="1"
         id="stop3777" />
    </linearGradient>
    <inkscape:perspective
       sodipodi:type="inkscape:persp3d"
       inkscape:vp_x="0 : 526.18109 : 1"
       inkscape:vp_y="0 : 1000 : 0"
       inkscape:vp_z="744.09448 : 526.18109 : 1"
       inkscape:persp3d-origin="372.04724 : 350.78739 : 1"
       id="perspective10" />
    <filter
       inkscape:collect="always"
       id="filter3614"
       x="-0.2872302"
       width="1.5744604"
       y="-0.2787505"
       height="1.557501">
      <feGaussianBlur
         inkscape:collect="always"
         stdDeviation="16.555329"
         id="feGaussianBlur3616" />
    </filter>
    <filter
       inkscape:collect="always"
       id="filter3671"
       x="-0.26463755"
       width="1.5292751"
       y="-0.29289188"
       height="1.5857838">
      <feGaussianBlur
         inkscape:collect="always"
         stdDeviation="46.598811"
         id="feGaussianBlur3673" />
    </filter>
    <filter
       inkscape:collect="always"
       id="filter3695"
       x="-0.27878692"
       width="1.5575738"
       y="-0.27731454"
       height="1.5546291">
      <feGaussianBlur
         inkscape:collect="always"
         stdDeviation="61.410637"
         id="feGaussianBlur3697" />
    </filter>
    <linearGradient
       inkscape:collect="always"
       xlink:href="#linearGradient3773"
       id="linearGradient3779"
       x1="423.25391"
       y1="297.16238"
       x2="454.58493"
       y2="265.83136"
       gradientUnits="userSpaceOnUse" />
    <linearGradient
       inkscape:collect="always"
       xlink:href="#linearGradient3773"
       id="linearGradient3783"
       gradientUnits="userSpaceOnUse"
       x1="423.25391"
       y1="297.16238"
       x2="454.58493"
       y2="265.83136" />
    <linearGradient
       inkscape:collect="always"
       xlink:href="#linearGradient3773"
       id="linearGradient3789"
       gradientUnits="userSpaceOnUse"
       x1="423.25391"
       y1="297.16238"
       x2="454.58493"
       y2="265.83136" />
    <linearGradient
       inkscape:collect="always"
       xlink:href="#linearGradient3773"
       id="linearGradient3791"
       gradientUnits="userSpaceOnUse"
       x1="423.25391"
       y1="297.16238"
       x2="454.58493"
       y2="265.83136" />
    <linearGradient
       inkscape:collect="always"
       xlink:href="#linearGradient3773"
       id="linearGradient3795"
       gradientUnits="userSpaceOnUse"
       x1="423.25391"
       y1="297.16238"
       x2="454.58493"
       y2="265.83136" />
    <linearGradient
       inkscape:collect="always"
       xlink:href="#linearGradient3773"
       id="linearGradient3799"
       gradientUnits="userSpaceOnUse"
       x1="423.25391"
       y1="297.16238"
       x2="454.58493"
       y2="265.83136" />
    <linearGradient
       inkscape:collect="always"
       xlink:href="#linearGradient3773"
       id="linearGradient3803"
       gradientUnits="userSpaceOnUse"
       x1="423.25391"
       y1="297.16238"
       x2="454.58493"
       y2="265.83136" />
    <linearGradient
       inkscape:collect="always"
       xlink:href="#linearGradient3773"
       id="linearGradient3807"
       gradientUnits="userSpaceOnUse"
       x1="423.25391"
       y1="297.16238"
       x2="454.58493"
       y2="265.83136" />
    <linearGradient
       inkscape:collect="always"
       xlink:href="#linearGradient3773"
       id="linearGradient3811"
       gradientUnits="userSpaceOnUse"
       x1="423.25391"
       y1="297.16238"
       x2="454.58493"
       y2="265.83136" />
    <linearGradient
       inkscape:collect="always"
       xlink:href="#linearGradient3773"
       id="linearGradient3902"
       gradientUnits="userSpaceOnUse"
       x1="423.25391"
       y1="297.16238"
       x2="454.58493"
       y2="265.83136" />
    <linearGradient
       inkscape:collect="always"
       xlink:href="#linearGradient3773"
       id="linearGradient3904"
       gradientUnits="userSpaceOnUse"
       x1="423.25391"
       y1="297.16238"
       x2="454.58493"
       y2="265.83136" />
    <linearGradient
       inkscape:collect="always"
       xlink:href="#linearGradient3773"
       id="linearGradient3906"
       gradientUnits="userSpaceOnUse"
       x1="423.25391"
       y1="297.16238"
       x2="454.58493"
       y2="265.83136" />
    <linearGradient
       inkscape:collect="always"
       xlink:href="#linearGradient3773"
       id="linearGradient3908"
       gradientUnits="userSpaceOnUse"
       x1="423.25391"
       y1="297.16238"
       x2="454.58493"
       y2="265.83136" />
    <linearGradient
       inkscape:collect="always"
       xlink:href="#linearGradient3773"
       id="linearGradient3910"
       gradientUnits="userSpaceOnUse"
       x1="423.25391"
       y1="297.16238"
       x2="454.58493"
       y2="265.83136" />
    <linearGradient
       inkscape:collect="always"
       xlink:href="#linearGradient3773"
       id="linearGradient3912"
       gradientUnits="userSpaceOnUse"
       x1="423.25391"
       y1="297.16238"
       x2="454.58493"
       y2="265.83136" />
    <linearGradient
       inkscape:collect="always"
       xlink:href="#linearGradient3773"
       id="linearGradient3914"
       gradientUnits="userSpaceOnUse"
       x1="423.25391"
       y1="297.16238"
       x2="454.58493"
       y2="265.83136" />
    <linearGradient
       inkscape:collect="always"
       xlink:href="#linearGradient3773"
       id="linearGradient3916"
       gradientUnits="userSpaceOnUse"
       x1="423.25391"
       y1="297.16238"
       x2="454.58493"
       y2="265.83136" />
    <linearGradient
       inkscape:collect="always"
       xlink:href="#linearGradient3773"
       id="linearGradient3918"
       gradientUnits="userSpaceOnUse"
       x1="423.25391"
       y1="297.16238"
       x2="454.58493"
       y2="265.83136" />
  </defs>
  <sodipodi:namedview
     id="base"
     pagecolor="#ffffff"
     bordercolor="#666666"
     borderopacity="1.0"
     inkscape:pageopacity="0.0"
     inkscape:pageshadow="2"
     inkscape:zoom="0.35"
     inkscape:cx="439.2729"
     inkscape:cy="188.37909"
     inkscape:document-units="px"
     inkscape:current-layer="layer2"
     showgrid="false"
     inkscape:window-width="1024"
     inkscape:window-height="846"
     inkscape:window-x="744"
     inkscape:window-y="181"
     inkscape:window-maximized="0"
     showguides="true"
     inkscape:guide-bbox="true" />
  <metadata
     id="metadata7">
    <rdf:RDF>
      <cc:Work
         rdf:about="">
        <dc:format>image/svg+xml</dc:format>
        <dc:type
           rdf:resource="http://purl.org/dc/dcmitype/StillImage" />
        <dc:title></dc:title>
      </cc:Work>
    </rdf:RDF>
  </metadata>
  <g
     inkscape:label="Layer 1"
     inkscape:groupmode="layer"
     id="layer1"
     transform="translate(0,-572.36218)">
    <rect
       style="fill:#333333;stroke:none"
       id="rect2816"
       width="640"
       height="480"
       x="0"
       y="572.36218"
       rx="0"
       ry="0" />
    <path
       sodipodi:type="star"
       style="fill:#ffeeaa;stroke:none"
       id="path2818"
       sodipodi:sides="5"
       sodipodi:cx="75"
       sodipodi:cy="122.85714"
       sodipodi:r1="75.084984"
       sodipodi:r2="33.171227"
       sodipodi:arg1="0.69108421"
       sodipodi:arg2="1.3444516"
       inkscape:flatsided="false"
       inkscape:rounded="0"
       inkscape:randomized="0"
       d="M 132.85714,170.71428 82.444187,155.18227 47.363994,192.67122 46.55735,139.926 0.06286742,118.14747 49.977289,101.08114 l 6.345022,-50.948816 31.655453,42.197649 50.415926,-9.709575 -30.35028,43.145912 24.81373,44.94797 z"
       transform="matrix(0.16753402,0,0,0.16753402,18.039139,587.63573)" />
    <path
       transform="matrix(0.16753402,0,0,0.16753402,18.039139,587.63573)"
       d="M 132.85714,170.71428 82.444187,155.18227 47.363994,192.67122 46.55735,139.926 0.06286742,118.14747 49.977289,101.08114 l 6.345022,-50.948816 31.655453,42.197649 50.415926,-9.709575 -30.35028,43.145912 24.81373,44.94797 z"
       inkscape:randomized="0"
       inkscape:rounded="0"
       inkscape:flatsided="false"
       sodipodi:arg2="1.3444516"
       sodipodi:arg1="0.69108421"
       sodipodi:r2="33.171227"
       sodipodi:r1="75.084984"
       sodipodi:cy="122.85714"
       sodipodi:cx="75"
       sodipodi:sides="5"
       id="path2820"
       style="fill:#ffeeaa;stroke:none;filter:url(#filter3614)"
       sodipodi:type="star" />
    <path
       transform="matrix(0,0.16753402,-0.16753402,0,152.00157,657.99587)"
       d="M 132.85714,170.71428 82.444187,155.18227 47.363994,192.67122 46.55735,139.926 0.06286742,118.14747 49.977289,101.08114 l 6.345022,-50.948816 31.655453,42.197649 50.415926,-9.709575 -30.35028,43.145912 24.81373,44.94797 z"
       inkscape:randomized="0"
       inkscape:rounded="0"
       inkscape:flatsided="false"
       sodipodi:arg2="1.3444516"
       sodipodi:arg1="0.69108421"
       sodipodi:r2="33.171227"
       sodipodi:r1="75.084984"
       sodipodi:cy="122.85714"
       sodipodi:cx="75"
       sodipodi:sides="5"
       id="path3619"
       style="fill:#ffeeaa;stroke:none"
       sodipodi:type="star" />
    <path
       sodipodi:type="star"
       style="fill:#ffeeaa;stroke:none;filter:url(#filter3614)"
       id="path3621"
       sodipodi:sides="5"
       sodipodi:cx="75"
       sodipodi:cy="122.85714"
       sodipodi:r1="75.084984"
       sodipodi:r2="33.171227"
       sodipodi:arg1="0.69108421"
       sodipodi:arg2="1.3444516"
       inkscape:flatsided="false"
       inkscape:rounded="0"
       inkscape:randomized="0"
       d="M 132.85714,170.71428 82.444187,155.18227 47.363994,192.67122 46.55735,139.926 0.06286742,118.14747 49.977289,101.08114 l 6.345022,-50.948816 31.655453,42.197649 50.415926,-9.709575 -30.35028,43.145912 24.81373,44.94797 z"
       transform="matrix(0,0.16753402,-0.16753402,0,152.00157,657.99587)" />
    <path
       sodipodi:type="star"
       style="fill:#ffeeaa;stroke:none"
       id="path3623"
       sodipodi:sides="5"
       sodipodi:cx="75"
       sodipodi:cy="122.85714"
       sodipodi:r1="75.084984"
       sodipodi:r2="33.171227"
       sodipodi:arg1="0.69108421"
       sodipodi:arg2="1.3444516"
       inkscape:flatsided="false"
       inkscape:rounded="0"
       inkscape:randomized="0"
       d="M 132.85714,170.71428 82.444187,155.18227 47.363994,192.67122 46.55735,139.926 0.06286742,118.14747 49.977289,101.08114 l 6.345022,-50.948816 31.655453,42.197649 50.415926,-9.709575 -30.35028,43.145912 24.81373,44.94797 z"
       transform="matrix(0,-0.16753402,0.16753402,0,194.15622,641.7961)" />
    <path
       transform="matrix(0,-0.16753402,0.16753402,0,194.15622,641.7961)"
       d="M 132.85714,170.71428 82.444187,155.18227 47.363994,192.67122 46.55735,139.926 0.06286742,118.14747 49.977289,101.08114 l 6.345022,-50.948816 31.655453,42.197649 50.415926,-9.709575 -30.35028,43.145912 24.81373,44.94797 z"
       inkscape:randomized="0"
       inkscape:rounded="0"
       inkscape:flatsided="false"
       sodipodi:arg2="1.3444516"
       sodipodi:arg1="0.69108421"
       sodipodi:r2="33.171227"
       sodipodi:r1="75.084984"
       sodipodi:cy="122.85714"
       sodipodi:cx="75"
       sodipodi:sides="5"
       id="path3625"
       style="fill:#ffeeaa;stroke:none;filter:url(#filter3614)"
       sodipodi:type="star" />
    <path
       transform="matrix(0.16753402,0,0,-0.16753402,142.2879,770.74508)"
       d="M 132.85714,170.71428 82.444187,155.18227 47.363994,192.67122 46.55735,139.926 0.06286742,118.14747 49.977289,101.08114 l 6.345022,-50.948816 31.655453,42.197649 50.415926,-9.709575 -30.35028,43.145912 24.81373,44.94797 z"
       inkscape:randomized="0"
       inkscape:rounded="0"
       inkscape:flatsided="false"
       sodipodi:arg2="1.3444516"
       sodipodi:arg1="0.69108421"
       sodipodi:r2="33.171227"
       sodipodi:r1="75.084984"
       sodipodi:cy="122.85714"
       sodipodi:cx="75"
       sodipodi:sides="5"
       id="path3627"
       style="fill:#ffeeaa;stroke:none"
       sodipodi:type="star" />
    <path
       sodipodi:type="star"
       style="fill:#ffeeaa;stroke:none;filter:url(#filter3614)"
       id="path3629"
       sodipodi:sides="5"
       sodipodi:cx="75"
       sodipodi:cy="122.85714"
       sodipodi:r1="75.084984"
       sodipodi:r2="33.171227"
       sodipodi:arg1="0.69108421"
       sodipodi:arg2="1.3444516"
       inkscape:flatsided="false"
       inkscape:rounded="0"
       inkscape:randomized="0"
       d="M 132.85714,170.71428 82.444187,155.18227 47.363994,192.67122 46.55735,139.926 0.06286742,118.14747 49.977289,101.08114 l 6.345022,-50.948816 31.655453,42.197649 50.415926,-9.709575 -30.35028,43.145912 24.81373,44.94797 z"
       transform="matrix(0.16753402,0,0,-0.16753402,142.2879,770.74508)" />
    <path
       sodipodi:type="star"
       style="fill:#ffeeaa;stroke:none"
       id="path3631"
       sodipodi:sides="5"
       sodipodi:cx="75"
       sodipodi:cy="122.85714"
       sodipodi:r1="75.084984"
       sodipodi:r2="33.171227"
       sodipodi:arg1="0.69108421"
       sodipodi:arg2="1.3444516"
       inkscape:flatsided="false"
       inkscape:rounded="0"
       inkscape:randomized="0"
       d="M 132.85714,170.71428 82.444187,155.18227 47.363994,192.67122 46.55735,139.926 0.06286742,118.14747 49.977289,101.08114 l 6.345022,-50.948816 31.655453,42.197649 50.415926,-9.709575 -30.35028,43.145912 24.81373,44.94797 z"
       transform="matrix(0.16753402,0,0,0.16753402,229.16103,688.65098)" />
    <path
       transform="matrix(0.16753402,0,0,0.16753402,229.16103,688.65098)"
       d="M 132.85714,170.71428 82.444187,155.18227 47.363994,192.67122 46.55735,139.926 0.06286742,118.14747 49.977289,101.08114 l 6.345022,-50.948816 31.655453,42.197649 50.415926,-9.709575 -30.35028,43.145912 24.81373,44.94797 z"
       inkscape:randomized="0"
       inkscape:rounded="0"
       inkscape:flatsided="false"
       sodipodi:arg2="1.3444516"
       sodipodi:arg1="0.69108421"
       sodipodi:r2="33.171227"
       sodipodi:r1="75.084984"
       sodipodi:cy="122.85714"
       sodipodi:cx="75"
       sodipodi:sides="5"
       id="path3633"
       style="fill:#ffeeaa;stroke:none;filter:url(#filter3614)"
       sodipodi:type="star" />
    <path
       transform="matrix(-0.16753402,0,0,0.16753402,401.85978,631.07229)"
       d="M 132.85714,170.71428 82.444187,155.18227 47.363994,192.67122 46.55735,139.926 0.06286742,118.14747 49.977289,101.08114 l 6.345022,-50.948816 31.655453,42.197649 50.415926,-9.709575 -30.35028,43.145912 24.81373,44.94797 z"
       inkscape:randomized="0"
       inkscape:rounded="0"
       inkscape:flatsided="false"
       sodipodi:arg2="1.3444516"
       sodipodi:arg1="0.69108421"
       sodipodi:r2="33.171227"
       sodipodi:r1="75.084984"
       sodipodi:cy="122.85714"
       sodipodi:cx="75"
       sodipodi:sides="5"
       id="path3635"
       style="fill:#ffeeaa;stroke:none"
       sodipodi:type="star" />
    <path
       sodipodi:type="star"
       style="fill:#ffeeaa;stroke:none;filter:url(#filter3614)"
       id="path3637"
       sodipodi:sides="5"
       sodipodi:cx="75"
       sodipodi:cy="122.85714"
       sodipodi:r1="75.084984"
       sodipodi:r2="33.171227"
       sodipodi:arg1="0.69108421"
       sodipodi:arg2="1.3444516"
       inkscape:flatsided="false"
       inkscape:rounded="0"
       inkscape:randomized="0"
       d="M 132.85714,170.71428 82.444187,155.18227 47.363994,192.67122 46.55735,139.926 0.06286742,118.14747 49.977289,101.08114 l 6.345022,-50.948816 31.655453,42.197649 50.415926,-9.709575 -30.35028,43.145912 24.81373,44.94797 z"
       transform="matrix(-0.16753402,0,0,0.16753402,401.85978,631.07229)" />
    <path
       sodipodi:type="star"
       style="fill:#ffeeaa;stroke:none"
       id="path3639"
       sodipodi:sides="5"
       sodipodi:cx="75"
       sodipodi:cy="122.85714"
       sodipodi:r1="75.084984"
       sodipodi:r2="33.171227"
       sodipodi:arg1="0.69108421"
       sodipodi:arg2="1.3444516"
       inkscape:flatsided="false"
       inkscape:rounded="0"
       inkscape:randomized="0"
       d="M 132.85714,170.71428 82.444187,155.18227 47.363994,192.67122 46.55735,139.926 0.06286742,118.14747 49.977289,101.08114 l 6.345022,-50.948816 31.655453,42.197649 50.415926,-9.709575 -30.35028,43.145912 24.81373,44.94797 z"
       transform="matrix(-0.16753402,0,0,0.16753402,75.580508,843.20432)" />
    <path
       transform="matrix(-0.16753402,0,0,0.16753402,75.580508,843.20432)"
       d="M 132.85714,170.71428 82.444187,155.18227 47.363994,192.67122 46.55735,139.926 0.06286742,118.14747 49.977289,101.08114 l 6.345022,-50.948816 31.655453,42.197649 50.415926,-9.709575 -30.35028,43.145912 24.81373,44.94797 z"
       inkscape:randomized="0"
       inkscape:rounded="0"
       inkscape:flatsided="false"
       sodipodi:arg2="1.3444516"
       sodipodi:arg1="0.69108421"
       sodipodi:r2="33.171227"
       sodipodi:r1="75.084984"
       sodipodi:cy="122.85714"
       sodipodi:cx="75"
       sodipodi:sides="5"
       id="path3641"
       style="fill:#ffeeaa;stroke:none;filter:url(#filter3614)"
       sodipodi:type="star" />
    <path
       transform="matrix(-0.16753402,0,0,0.16753402,183.66683,918.96576)"
       d="M 132.85714,170.71428 82.444187,155.18227 47.363994,192.67122 46.55735,139.926 0.06286742,118.14747 49.977289,101.08114 l 6.345022,-50.948816 31.655453,42.197649 50.415926,-9.709575 -30.35028,43.145912 24.81373,44.94797 z"
       inkscape:randomized="0"
       inkscape:rounded="0"
       inkscape:flatsided="false"
       sodipodi:arg2="1.3444516"
       sodipodi:arg1="0.69108421"
       sodipodi:r2="33.171227"
       sodipodi:r1="75.084984"
       sodipodi:cy="122.85714"
       sodipodi:cx="75"
       sodipodi:sides="5"
       id="path3643"
       style="fill:#ffeeaa;stroke:none"
       sodipodi:type="star" />
    <path
       sodipodi:type="star"
       style="fill:#ffeeaa;stroke:none;filter:url(#filter3614)"
       id="path3645"
       sodipodi:sides="5"
       sodipodi:cx="75"
       sodipodi:cy="122.85714"
       sodipodi:r1="75.084984"
       sodipodi:r2="33.171227"
       sodipodi:arg1="0.69108421"
       sodipodi:arg2="1.3444516"
       inkscape:flatsided="false"
       inkscape:rounded="0"
       inkscape:randomized="0"
       d="M 132.85714,170.71428 82.444187,155.18227 47.363994,192.67122 46.55735,139.926 0.06286742,118.14747 49.977289,101.08114 l 6.345022,-50.948816 31.655453,42.197649 50.415926,-9.709575 -30.35028,43.145912 24.81373,44.94797 z"
       transform="matrix(-0.16753402,0,0,0.16753402,183.66683,918.96576)" />
    <path
       sodipodi:type="star"
       style="fill:#ffeeaa;stroke:none"
       id="path3647"
       sodipodi:sides="5"
       sodipodi:cx="75"
       sodipodi:cy="122.85714"
       sodipodi:r1="75.084984"
       sodipodi:r2="33.171227"
       sodipodi:arg1="0.69108421"
       sodipodi:arg2="1.3444516"
       inkscape:flatsided="false"
       inkscape:rounded="0"
       inkscape:randomized="0"
       d="M 132.85714,170.71428 82.444187,155.18227 47.363994,192.67122 46.55735,139.926 0.06286742,118.14747 49.977289,101.08114 l 6.345022,-50.948816 31.655453,42.197649 50.415926,-9.709575 -30.35028,43.145912 24.81373,44.94797 z"
       transform="matrix(-0.16753402,0,0,0.16753402,322.05773,837.1434)" />
    <path
       transform="matrix(-0.16753402,0,0,0.16753402,322.05773,837.1434)"
       d="M 132.85714,170.71428 82.444187,155.18227 47.363994,192.67122 46.55735,139.926 0.06286742,118.14747 49.977289,101.08114 l 6.345022,-50.948816 31.655453,42.197649 50.415926,-9.709575 -30.35028,43.145912 24.81373,44.94797 z"
       inkscape:randomized="0"
       inkscape:rounded="0"
       inkscape:flatsided="false"
       sodipodi:arg2="1.3444516"
       sodipodi:arg1="0.69108421"
       sodipodi:r2="33.171227"
       sodipodi:r1="75.084984"
       sodipodi:cy="122.85714"
       sodipodi:cx="75"
       sodipodi:sides="5"
       id="path3649"
       style="fill:#ffeeaa;stroke:none;filter:url(#filter3614)"
       sodipodi:type="star" />
    <path
       transform="matrix(-0.16753402,0,0,0.16753402,511.96641,921.99621)"
       d="M 132.85714,170.71428 82.444187,155.18227 47.363994,192.67122 46.55735,139.926 0.06286742,118.14747 49.977289,101.08114 l 6.345022,-50.948816 31.655453,42.197649 50.415926,-9.709575 -30.35028,43.145912 24.81373,44.94797 z"
       inkscape:randomized="0"
       inkscape:rounded="0"
       inkscape:flatsided="false"
       sodipodi:arg2="1.3444516"
       sodipodi:arg1="0.69108421"
       sodipodi:r2="33.171227"
       sodipodi:r1="75.084984"
       sodipodi:cy="122.85714"
       sodipodi:cx="75"
       sodipodi:sides="5"
       id="path3651"
       style="fill:#ffeeaa;stroke:none"
       sodipodi:type="star" />
    <path
       sodipodi:type="star"
       style="fill:#ffeeaa;stroke:none;filter:url(#filter3614)"
       id="path3653"
       sodipodi:sides="5"
       sodipodi:cx="75"
       sodipodi:cy="122.85714"
       sodipodi:r1="75.084984"
       sodipodi:r2="33.171227"
       sodipodi:arg1="0.69108421"
       sodipodi:arg2="1.3444516"
       inkscape:flatsided="false"
       inkscape:rounded="0"
       inkscape:randomized="0"
       d="M 132.85714,170.71428 82.444187,155.18227 47.363994,192.67122 46.55735,139.926 0.06286742,118.14747 49.977289,101.08114 l 6.345022,-50.948816 31.655453,42.197649 50.415926,-9.709575 -30.35028,43.145912 24.81373,44.94797 z"
       transform="matrix(-0.16753402,0,0,0.16753402,511.96641,921.99621)" />
    <path
       sodipodi:type="star"
       style="fill:#ffccaa;stroke:none"
       id="path3661"
       sodipodi:sides="6"
       sodipodi:cx="-263.64981"
       sodipodi:cy="67.857758"
       sodipodi:r1="211.89619"
       sodipodi:r2="93.612015"
       sodipodi:arg1="1.122073"
       sodipodi:arg2="1.6456718"
       inkscape:flatsided="false"
       inkscape:rounded="0"
       inkscape:randomized="0"
       d="m -171.72594,258.77658 -98.92657,-97.5691 -112.37592,81.7181 35.03404,-134.45747 -126.95791,-56.461354 133.9606,-36.888375 -14.58199,-138.179451 98.92658,97.5691 112.37592,-81.7181 -35.03404,134.457477 126.957911,56.461353 -133.960601,36.88837 14.58198,138.17945 z"
       transform="matrix(0.07017344,0,0,0.07017344,475.59524,749.87082)" />
    <path
       transform="matrix(0.07017344,0,0,0.07017344,475.59524,749.87082)"
       d="m -171.72594,258.77658 -98.92657,-97.5691 -112.37592,81.7181 35.03404,-134.45747 -126.95791,-56.461354 133.9606,-36.888375 -14.58199,-138.179451 98.92658,97.5691 112.37592,-81.7181 -35.03404,134.457477 126.957911,56.461353 -133.960601,36.88837 14.58198,138.17945 z"
       inkscape:randomized="0"
       inkscape:rounded="0"
       inkscape:flatsided="false"
       sodipodi:arg2="1.6456718"
       sodipodi:arg1="1.122073"
       sodipodi:r2="93.612015"
       sodipodi:r1="211.89619"
       sodipodi:cy="67.857758"
       sodipodi:cx="-263.64981"
       sodipodi:sides="6"
       id="path3665"
       style="fill:#ffccaa;stroke:none;filter:url(#filter3671)"
       sodipodi:type="star" />
    <path
       transform="matrix(0.07017344,0,0,0.07017344,322.05205,769.06372)"
       d="m -171.72594,258.77658 -98.92657,-97.5691 -112.37592,81.7181 35.03404,-134.45747 -126.95791,-56.461354 133.9606,-36.888375 -14.58199,-138.179451 98.92658,97.5691 112.37592,-81.7181 -35.03404,134.457477 126.957911,56.461353 -133.960601,36.88837 14.58198,138.17945 z"
       inkscape:randomized="0"
       inkscape:rounded="0"
       inkscape:flatsided="false"
       sodipodi:arg2="1.6456718"
       sodipodi:arg1="1.122073"
       sodipodi:r2="93.612015"
       sodipodi:r1="211.89619"
       sodipodi:cy="67.857758"
       sodipodi:cx="-263.64981"
       sodipodi:sides="6"
       id="path3675"
       style="fill:#ffccaa;stroke:none"
       sodipodi:type="star" />
    <path
       sodipodi:type="star"
       style="fill:#ffccaa;stroke:none;filter:url(#filter3671)"
       id="path3677"
       sodipodi:sides="6"
       sodipodi:cx="-263.64981"
       sodipodi:cy="67.857758"
       sodipodi:r1="211.89619"
       sodipodi:r2="93.612015"
       sodipodi:arg1="1.122073"
       sodipodi:arg2="1.6456718"
       inkscape:flatsided="false"
       inkscape:rounded="0"
       inkscape:randomized="0"
       d="m -171.72594,258.77658 -98.92657,-97.5691 -112.37592,81.7181 35.03404,-134.45747 -126.95791,-56.461354 133.9606,-36.888375 -14.58199,-138.179451 98.92658,97.5691 112.37592,-81.7181 -35.03404,134.457477 126.957911,56.461353 -133.960601,36.88837 14.58198,138.17945 z"
       transform="matrix(0.07017344,0,0,0.07017344,322.05205,769.06372)" />
    <path
       sodipodi:type="star"
       style="fill:#ffccaa;stroke:none"
       id="path3679"
       sodipodi:sides="6"
       sodipodi:cx="-263.64981"
       sodipodi:cy="67.857758"
       sodipodi:r1="211.89619"
       sodipodi:r2="93.612015"
       sodipodi:arg1="1.122073"
       sodipodi:arg2="1.6456718"
       inkscape:flatsided="false"
       inkscape:rounded="0"
       inkscape:randomized="0"
       d="m -171.72594,258.77658 -98.92657,-97.5691 -112.37592,81.7181 35.03404,-134.45747 -126.95791,-56.461354 133.9606,-36.888375 -14.58199,-138.179451 98.92658,97.5691 112.37592,-81.7181 -35.03404,134.457477 126.957911,56.461353 -133.960601,36.88837 14.58198,138.17945 z"
       transform="matrix(0.07017344,0,0,0.07017344,102.84895,991.29728)" />
    <path
       transform="matrix(0.07017344,0,0,0.07017344,102.84895,991.29728)"
       d="m -171.72594,258.77658 -98.92657,-97.5691 -112.37592,81.7181 35.03404,-134.45747 -126.95791,-56.461354 133.9606,-36.888375 -14.58199,-138.179451 98.92658,97.5691 112.37592,-81.7181 -35.03404,134.457477 126.957911,56.461353 -133.960601,36.88837 14.58198,138.17945 z"
       inkscape:randomized="0"
       inkscape:rounded="0"
       inkscape:flatsided="false"
       sodipodi:arg2="1.6456718"
       sodipodi:arg1="1.122073"
       sodipodi:r2="93.612015"
       sodipodi:r1="211.89619"
       sodipodi:cy="67.857758"
       sodipodi:cx="-263.64981"
       sodipodi:sides="6"
       id="path3681"
       style="fill:#ffccaa;stroke:none;filter:url(#filter3671)"
       sodipodi:type="star" />
    <path
       transform="matrix(0.07017344,0,0,0.07017344,77.595136,711.48502)"
       d="m -171.72594,258.77658 -98.92657,-97.5691 -112.37592,81.7181 35.03404,-134.45747 -126.95791,-56.461354 133.9606,-36.888375 -14.58199,-138.179451 98.92658,97.5691 112.37592,-81.7181 -35.03404,134.457477 126.957911,56.461353 -133.960601,36.88837 14.58198,138.17945 z"
       inkscape:randomized="0"
       inkscape:rounded="0"
       inkscape:flatsided="false"
       sodipodi:arg2="1.6456718"
       sodipodi:arg1="1.122073"
       sodipodi:r2="93.612015"
       sodipodi:r1="211.89619"
       sodipodi:cy="67.857758"
       sodipodi:cx="-263.64981"
       sodipodi:sides="6"
       id="path3683"
       style="fill:#ffccaa;stroke:none"
       sodipodi:type="star" />
    <path
       sodipodi:type="star"
       style="fill:#ffccaa;stroke:none;filter:url(#filter3671)"
       id="path3685"
       sodipodi:sides="6"
       sodipodi:cx="-263.64981"
       sodipodi:cy="67.857758"
       sodipodi:r1="211.89619"
       sodipodi:r2="93.612015"
       sodipodi:arg1="1.122073"
       sodipodi:arg2="1.6456718"
       inkscape:flatsided="false"
       inkscape:rounded="0"
       inkscape:randomized="0"
       d="m -171.72594,258.77658 -98.92657,-97.5691 -112.37592,81.7181 35.03404,-134.45747 -126.95791,-56.461354 133.9606,-36.888375 -14.58199,-138.179451 98.92658,97.5691 112.37592,-81.7181 -35.03404,134.457477 126.957911,56.461353 -133.960601,36.88837 14.58198,138.17945 z"
       transform="matrix(0.07017344,0,0,0.07017344,77.595136,711.48502)" />
    <path
       sodipodi:type="star"
       style="fill:#ffccaa;stroke:none"
       id="path3687"
       sodipodi:sides="6"
       sodipodi:cx="-263.64981"
       sodipodi:cy="67.857758"
       sodipodi:r1="211.89619"
       sodipodi:r2="93.612015"
       sodipodi:arg1="1.122073"
       sodipodi:arg2="1.6456718"
       inkscape:flatsided="false"
       inkscape:rounded="0"
       inkscape:randomized="0"
       d="m -171.72594,258.77658 -98.92657,-97.5691 -112.37592,81.7181 35.03404,-134.45747 -126.95791,-56.461354 133.9606,-36.888375 -14.58199,-138.179451 98.92658,97.5691 112.37592,-81.7181 -35.03404,134.457477 126.957911,56.461353 -133.960601,36.88837 14.58198,138.17945 z"
       transform="matrix(0.07017344,0,0,0.07017344,405.89471,990.28712)" />
    <path
       transform="matrix(0.07017344,0,0,0.07017344,405.89471,990.28712)"
       d="m -171.72594,258.77658 -98.92657,-97.5691 -112.37592,81.7181 35.03404,-134.45747 -126.95791,-56.461354 133.9606,-36.888375 -14.58199,-138.179451 98.92658,97.5691 112.37592,-81.7181 -35.03404,134.457477 126.957911,56.461353 -133.960601,36.88837 14.58198,138.17945 z"
       inkscape:randomized="0"
       inkscape:rounded="0"
       inkscape:flatsided="false"
       sodipodi:arg2="1.6456718"
       sodipodi:arg1="1.122073"
       sodipodi:r2="93.612015"
       sodipodi:r1="211.89619"
       sodipodi:cy="67.857758"
       sodipodi:cx="-263.64981"
       sodipodi:sides="6"
       id="path3689"
       style="fill:#ffccaa;stroke:none;filter:url(#filter3671)"
       sodipodi:type="star" />
    <path
       sodipodi:type="star"
       style="fill:#aaeeff;stroke:none"
       id="path3691"
       sodipodi:sides="7"
       sodipodi:cx="-170.71577"
       sodipodi:cy="141.59891"
       sodipodi:r1="273.64694"
       sodipodi:r2="120.89242"
       sodipodi:arg1="0.80889253"
       sodipodi:arg2="1.2576915"
       inkscape:flatsided="false"
       inkscape:rounded="0"
       inkscape:randomized="0"
       d="m 18.182747,339.5888 -151.661967,-82.97504 -74.25498,156.11664 -29.68719,-170.30819 -168.35413,39.28224 114.64265,-129.3958 -135.67919,-107.132475 172.64423,8.95427 -0.83504,-172.874265 100.64119,140.561593 134.637903,-108.438202 -47.146724,166.323167 168.725761,37.654042 -159.432191,66.84 75.759678,155.39202 z"
       transform="matrix(0.02742683,0,0,0.02742683,216.23938,860.93615)" />
    <path
       transform="matrix(0.02742683,0,0,0.02742683,216.23938,860.93615)"
       d="m 18.182747,339.5888 -151.661967,-82.97504 -74.25498,156.11664 -29.68719,-170.30819 -168.35413,39.28224 114.64265,-129.3958 -135.67919,-107.132475 172.64423,8.95427 -0.83504,-172.874265 100.64119,140.561593 134.637903,-108.438202 -47.146724,166.323167 168.725761,37.654042 -159.432191,66.84 75.759678,155.39202 z"
       inkscape:randomized="0"
       inkscape:rounded="0"
       inkscape:flatsided="false"
       sodipodi:arg2="1.2576915"
       sodipodi:arg1="0.80889253"
       sodipodi:r2="120.89242"
       sodipodi:r1="273.64694"
       sodipodi:cy="141.59891"
       sodipodi:cx="-170.71577"
       sodipodi:sides="7"
       id="path3693"
       style="fill:#aaeeff;stroke:none;filter:url(#filter3695)"
       sodipodi:type="star" />
    <path
       transform="matrix(0.02742683,0,0,0.02742683,467.76736,822.55035)"
       d="m 18.182747,339.5888 -151.661967,-82.97504 -74.25498,156.11664 -29.68719,-170.30819 -168.35413,39.28224 114.64265,-129.3958 -135.67919,-107.132475 172.64423,8.95427 -0.83504,-172.874265 100.64119,140.561593 134.637903,-108.438202 -47.146724,166.323167 168.725761,37.654042 -159.432191,66.84 75.759678,155.39202 z"
       inkscape:randomized="0"
       inkscape:rounded="0"
       inkscape:flatsided="false"
       sodipodi:arg2="1.2576915"
       sodipodi:arg1="0.80889253"
       sodipodi:r2="120.89242"
       sodipodi:r1="273.64694"
       sodipodi:cy="141.59891"
       sodipodi:cx="-170.71577"
       sodipodi:sides="7"
       id="path3699"
       style="fill:#aaeeff;stroke:none"
       sodipodi:type="star" />
    <path
       sodipodi:type="star"
       style="fill:#aaeeff;stroke:none;filter:url(#filter3695)"
       id="path3701"
       sodipodi:sides="7"
       sodipodi:cx="-170.71577"
       sodipodi:cy="141.59891"
       sodipodi:r1="273.64694"
       sodipodi:r2="120.89242"
       sodipodi:arg1="0.80889253"
       sodipodi:arg2="1.2576915"
       inkscape:flatsided="false"
       inkscape:rounded="0"
       inkscape:randomized="0"
       d="m 18.182747,339.5888 -151.661967,-82.97504 -74.25498,156.11664 -29.68719,-170.30819 -168.35413,39.28224 114.64265,-129.3958 -135.67919,-107.132475 172.64423,8.95427 -0.83504,-172.874265 100.64119,140.561593 134.637903,-108.438202 -47.146724,166.323167 168.725761,37.654042 -159.432191,66.84 75.759678,155.39202 z"
       transform="matrix(0.02742683,0,0,0.02742683,467.76736,822.55035)" />
    <path
       sodipodi:type="star"
       style="fill:#aaeeff;stroke:none"
       id="path3703"
       sodipodi:sides="7"
       sodipodi:cx="-170.71577"
       sodipodi:cy="141.59891"
       sodipodi:r1="273.64694"
       sodipodi:r2="120.89242"
       sodipodi:arg1="0.80889253"
       sodipodi:arg2="1.2576915"
       inkscape:flatsided="false"
       inkscape:rounded="0"
       inkscape:randomized="0"
       d="m 18.182747,339.5888 -151.661967,-82.97504 -74.25498,156.11664 -29.68719,-170.30819 -168.35413,39.28224 114.64265,-129.3958 -135.67919,-107.132475 172.64423,8.95427 -0.83504,-172.874265 100.64119,140.561593 134.637903,-108.438202 -47.146724,166.323167 168.725761,37.654042 -159.432191,66.84 75.759678,155.39202 z"
       transform="matrix(0.02742683,0,0,0.02742683,326.346,641.73304)" />
    <path
       transform="matrix(0.02742683,0,0,0.02742683,326.346,641.73304)"
       d="m 18.182747,339.5888 -151.661967,-82.97504 -74.25498,156.11664 -29.68719,-170.30819 -168.35413,39.28224 114.64265,-129.3958 -135.67919,-107.132475 172.64423,8.95427 -0.83504,-172.874265 100.64119,140.561593 134.637903,-108.438202 -47.146724,166.323167 168.725761,37.654042 -159.432191,66.84 75.759678,155.39202 z"
       inkscape:randomized="0"
       inkscape:rounded="0"
       inkscape:flatsided="false"
       sodipodi:arg2="1.2576915"
       sodipodi:arg1="0.80889253"
       sodipodi:r2="120.89242"
       sodipodi:r1="273.64694"
       sodipodi:cy="141.59891"
       sodipodi:cx="-170.71577"
       sodipodi:sides="7"
       id="path3705"
       style="fill:#aaeeff;stroke:none;filter:url(#filter3695)"
       sodipodi:type="star" />
    <path
       transform="matrix(0.02742683,0,0,0.02742683,570.80292,621.52999)"
       d="m 18.182747,339.5888 -151.661967,-82.97504 -74.25498,156.11664 -29.68719,-170.30819 -168.35413,39.28224 114.64265,-129.3958 -135.67919,-107.132475 172.64423,8.95427 -0.83504,-172.874265 100.64119,140.561593 134.637903,-108.438202 -47.146724,166.323167 168.725761,37.654042 -159.432191,66.84 75.759678,155.39202 z"
       inkscape:randomized="0"
       inkscape:rounded="0"
       inkscape:flatsided="false"
       sodipodi:arg2="1.2576915"
       sodipodi:arg1="0.80889253"
       sodipodi:r2="120.89242"
       sodipodi:r1="273.64694"
       sodipodi:cy="141.59891"
       sodipodi:cx="-170.71577"
       sodipodi:sides="7"
       id="path3707"
       style="fill:#aaeeff;stroke:none"
       sodipodi:type="star" />
    <path
       sodipodi:type="star"
       style="fill:#aaeeff;stroke:none;filter:url(#filter3695)"
       id="path3709"
       sodipodi:sides="7"
       sodipodi:cx="-170.71577"
       sodipodi:cy="141.59891"
       sodipodi:r1="273.64694"
       sodipodi:r2="120.89242"
       sodipodi:arg1="0.80889253"
       sodipodi:arg2="1.2576915"
       inkscape:flatsided="false"
       inkscape:rounded="0"
       inkscape:randomized="0"
       d="m 18.182747,339.5888 -151.661967,-82.97504 -74.25498,156.11664 -29.68719,-170.30819 -168.35413,39.28224 114.64265,-129.3958 -135.67919,-107.132475 172.64423,8.95427 -0.83504,-172.874265 100.64119,140.561593 134.637903,-108.438202 -47.146724,166.323167 168.725761,37.654042 -159.432191,66.84 75.759678,155.39202 z"
       transform="matrix(0.02742683,0,0,0.02742683,570.80292,621.52999)" />
    <path
       sodipodi:type="star"
       style="fill:#aaeeff;stroke:none"
       id="path3711"
       sodipodi:sides="7"
       sodipodi:cx="-170.71577"
       sodipodi:cy="141.59891"
       sodipodi:r1="273.64694"
       sodipodi:r2="120.89242"
       sodipodi:arg1="0.80889253"
       sodipodi:arg2="1.2576915"
       inkscape:flatsided="false"
       inkscape:rounded="0"
       inkscape:randomized="0"
       d="m 18.182747,339.5888 -151.661967,-82.97504 -74.25498,156.11664 -29.68719,-170.30819 -168.35413,39.28224 114.64265,-129.3958 -135.67919,-107.132475 172.64423,8.95427 -0.83504,-172.874265 100.64119,140.561593 134.637903,-108.438202 -47.146724,166.323167 168.725761,37.654042 -159.432191,66.84 75.759678,155.39202 z"
       transform="matrix(0.02742683,0,0,0.02742683,530.39682,653.85487)" />
    <path
       transform="matrix(0.02742683,0,0,0.02742683,530.39682,653.85487)"
       d="m 18.182747,339.5888 -151.661967,-82.97504 -74.25498,156.11664 -29.68719,-170.30819 -168.35413,39.28224 114.64265,-129.3958 -135.67919,-107.132475 172.64423,8.95427 -0.83504,-172.874265 100.64119,140.561593 134.637903,-108.438202 -47.146724,166.323167 168.725761,37.654042 -159.432191,66.84 75.759678,155.39202 z"
       inkscape:randomized="0"
       inkscape:rounded="0"
       inkscape:flatsided="false"
       sodipodi:arg2="1.2576915"
       sodipodi:arg1="0.80889253"
       sodipodi:r2="120.89242"
       sodipodi:r1="273.64694"
       sodipodi:cy="141.59891"
       sodipodi:cx="-170.71577"
       sodipodi:sides="7"
       id="path3713"
       style="fill:#aaeeff;stroke:none;filter:url(#filter3695)"
       sodipodi:type="star" />
    <path
       transform="matrix(0.02742683,0,0,0.02742683,575.85368,670.01731)"
       d="m 18.182747,339.5888 -151.661967,-82.97504 -74.25498,156.11664 -29.68719,-170.30819 -168.35413,39.28224 114.64265,-129.3958 -135.67919,-107.132475 172.64423,8.95427 -0.83504,-172.874265 100.64119,140.561593 134.637903,-108.438202 -47.146724,166.323167 168.725761,37.654042 -159.432191,66.84 75.759678,155.39202 z"
       inkscape:randomized="0"
       inkscape:rounded="0"
       inkscape:flatsided="false"
       sodipodi:arg2="1.2576915"
       sodipodi:arg1="0.80889253"
       sodipodi:r2="120.89242"
       sodipodi:r1="273.64694"
       sodipodi:cy="141.59891"
       sodipodi:cx="-170.71577"
       sodipodi:sides="7"
       id="path3715"
       style="fill:#aaeeff;stroke:none"
       sodipodi:type="star" />
    <path
       sodipodi:type="star"
       style="fill:#aaeeff;stroke:none;filter:url(#filter3695)"
       id="path3717"
       sodipodi:sides="7"
       sodipodi:cx="-170.71577"
       sodipodi:cy="141.59891"
       sodipodi:r1="273.64694"
       sodipodi:r2="120.89242"
       sodipodi:arg1="0.80889253"
       sodipodi:arg2="1.2576915"
       inkscape:flatsided="false"
       inkscape:rounded="0"
       inkscape:randomized="0"
       d="m 18.182747,339.5888 -151.661967,-82.97504 -74.25498,156.11664 -29.68719,-170.30819 -168.35413,39.28224 114.64265,-129.3958 -135.67919,-107.132475 172.64423,8.95427 -0.83504,-172.874265 100.64119,140.561593 134.637903,-108.438202 -47.146724,166.323167 168.725761,37.654042 -159.432191,66.84 75.759678,155.39202 z"
       transform="matrix(0.02742683,0,0,0.02742683,575.85368,670.01731)" />
    <path
       sodipodi:type="star"
       style="fill:#aaeeff;stroke:none"
       id="path3719"
       sodipodi:sides="7"
       sodipodi:cx="-170.71577"
       sodipodi:cy="141.59891"
       sodipodi:r1="273.64694"
       sodipodi:r2="120.89242"
       sodipodi:arg1="0.80889253"
       sodipodi:arg2="1.2576915"
       inkscape:flatsided="false"
       inkscape:rounded="0"
       inkscape:randomized="0"
       d="m 18.182747,339.5888 -151.661967,-82.97504 -74.25498,156.11664 -29.68719,-170.30819 -168.35413,39.28224 114.64265,-129.3958 -135.67919,-107.132475 172.64423,8.95427 -0.83504,-172.874265 100.64119,140.561593 134.637903,-108.438202 -47.146724,166.323167 168.725761,37.654042 -159.432191,66.84 75.759678,155.39202 z"
       transform="matrix(0.02742683,0,0,0.02742683,581.9146,984.17475)" />
    <path
       transform="matrix(0.02742683,0,0,0.02742683,581.9146,984.17475)"
       d="m 18.182747,339.5888 -151.661967,-82.97504 -74.25498,156.11664 -29.68719,-170.30819 -168.35413,39.28224 114.64265,-129.3958 -135.67919,-107.132475 172.64423,8.95427 -0.83504,-172.874265 100.64119,140.561593 134.637903,-108.438202 -47.146724,166.323167 168.725761,37.654042 -159.432191,66.84 75.759678,155.39202 z"
       inkscape:randomized="0"
       inkscape:rounded="0"
       inkscape:flatsided="false"
       sodipodi:arg2="1.2576915"
       sodipodi:arg1="0.80889253"
       sodipodi:r2="120.89242"
       sodipodi:r1="273.64694"
       sodipodi:cy="141.59891"
       sodipodi:cx="-170.71577"
       sodipodi:sides="7"
       id="path3721"
       style="fill:#aaeeff;stroke:none;filter:url(#filter3695)"
       sodipodi:type="star" />
    <path
       transform="matrix(0.02742683,0,0,0.02742683,185.9348,1009.4286)"
       d="m 18.182747,339.5888 -151.661967,-82.97504 -74.25498,156.11664 -29.68719,-170.30819 -168.35413,39.28224 114.64265,-129.3958 -135.67919,-107.132475 172.64423,8.95427 -0.83504,-172.874265 100.64119,140.561593 134.637903,-108.438202 -47.146724,166.323167 168.725761,37.654042 -159.432191,66.84 75.759678,155.39202 z"
       inkscape:randomized="0"
       inkscape:rounded="0"
       inkscape:flatsided="false"
       sodipodi:arg2="1.2576915"
       sodipodi:arg1="0.80889253"
       sodipodi:r2="120.89242"
       sodipodi:r1="273.64694"
       sodipodi:cy="141.59891"
       sodipodi:cx="-170.71577"
       sodipodi:sides="7"
       id="path3723"
       style="fill:#aaeeff;stroke:none"
       sodipodi:type="star" />
    <path
       sodipodi:type="star"
       style="fill:#aaeeff;stroke:none;filter:url(#filter3695)"
       id="path3725"
       sodipodi:sides="7"
       sodipodi:cx="-170.71577"
       sodipodi:cy="141.59891"
       sodipodi:r1="273.64694"
       sodipodi:r2="120.89242"
       sodipodi:arg1="0.80889253"
       sodipodi:arg2="1.2576915"
       inkscape:flatsided="false"
       inkscape:rounded="0"
       inkscape:randomized="0"
       d="m 18.182747,339.5888 -151.661967,-82.97504 -74.25498,156.11664 -29.68719,-170.30819 -168.35413,39.28224 114.64265,-129.3958 -135.67919,-107.132475 172.64423,8.95427 -0.83504,-172.874265 100.64119,140.561593 134.637903,-108.438202 -47.146724,166.323167 168.725761,37.654042 -159.432191,66.84 75.759678,155.39202 z"
       transform="matrix(0.02742683,0,0,0.02742683,185.9348,1009.4286)" />
    <path
       sodipodi:type="arc"
       style="fill:#ececec;stroke:none"
       id="path3727"
       sodipodi:cx="475.78186"
       sodipodi:cy="311.30453"
       sodipodi:rx="122.22845"
       sodipodi:ry="122.22845"
       d="m 598.01031,311.30453 c 0,67.50491 -54.72354,122.22845 -122.22845,122.22845 -67.50491,0 -122.22845,-54.72354 -122.22845,-122.22845 0,-67.5049 54.72354,-122.22844 122.22845,-122.22844 67.50491,0 122.22845,54.72354 122.22845,122.22844 z"
       transform="matrix(0.34710738,0,0,0.34710738,401.5482,666.51413)" />
    <path
       sodipodi:type="arc"
       style="fill:url(#linearGradient3902);fill-opacity:1;stroke:none"
       id="path3771"
       sodipodi:cx="432.85037"
       sodipodi:cy="289.58624"
       sodipodi:rx="22.728432"
       sodipodi:ry="22.728432"
       d="m 455.5788,289.58624 c 0,12.55257 -10.17586,22.72843 -22.72843,22.72843 -12.55256,0 -22.72843,-10.17586 -22.72843,-22.72843 0,-12.55256 10.17587,-22.72843 22.72843,-22.72843 12.55257,0 22.72843,10.17587 22.72843,22.72843 z"
       transform="matrix(0.23140492,0,0,0.23140492,438.83201,704.75349)" />
    <path
       transform="matrix(0.36253436,0,0,0.36253436,389.26052,685.88962)"
       d="m 455.5788,289.58624 c 0,12.55257 -10.17586,22.72843 -22.72843,22.72843 -12.55256,0 -22.72843,-10.17586 -22.72843,-22.72843 0,-12.55256 10.17587,-22.72843 22.72843,-22.72843 12.55257,0 22.72843,10.17587 22.72843,22.72843 z"
       sodipodi:ry="22.728432"
       sodipodi:rx="22.728432"
       sodipodi:cy="289.58624"
       sodipodi:cx="432.85037"
       id="path3781"
       style="fill:url(#linearGradient3904);fill-opacity:1;stroke:none"
       sodipodi:type="arc" />
    <path
       sodipodi:type="arc"
       style="fill:url(#linearGradient3906);fill-opacity:1;stroke:none"
       id="path3785"
       sodipodi:cx="432.85037"
       sodipodi:cy="289.58624"
       sodipodi:rx="22.728432"
       sodipodi:ry="22.728432"
       d="m 455.5788,289.58624 c 0,12.55257 -10.17586,22.72843 -22.72843,22.72843 -12.55256,0 -22.72843,-10.17586 -22.72843,-22.72843 0,-12.55256 10.17587,-22.72843 22.72843,-22.72843 12.55257,0 22.72843,10.17587 22.72843,22.72843 z"
       transform="matrix(0.25454541,0,0,0.25454541,449.32757,730.83636)" />
    <path
       transform="matrix(0.16198344,0,0,0.16198344,496.05506,739.75883)"
       d="m 455.5788,289.58624 c 0,12.55257 -10.17586,22.72843 -22.72843,22.72843 -12.55256,0 -22.72843,-10.17586 -22.72843,-22.72843 0,-12.55256 10.17587,-22.72843 22.72843,-22.72843 12.55257,0 22.72843,10.17587 22.72843,22.72843 z"
       sodipodi:ry="22.728432"
       sodipodi:rx="22.728432"
       sodipodi:cy="289.58624"
       sodipodi:cx="432.85037"
       id="path3787"
       style="fill:url(#linearGradient3908);fill-opacity:1;stroke:none"
       sodipodi:type="arc" />
    <path
       sodipodi:type="arc"
       style="fill:url(#linearGradient3910);fill-opacity:1;stroke:none"
       id="path3793"
       sodipodi:cx="432.85037"
       sodipodi:cy="289.58624"
       sodipodi:rx="22.728432"
       sodipodi:ry="22.728432"
       d="m 455.5788,289.58624 c 0,12.55257 -10.17586,22.72843 -22.72843,22.72843 -12.55256,0 -22.72843,-10.17586 -22.72843,-22.72843 0,-12.55256 10.17587,-22.72843 22.72843,-22.72843 12.55257,0 22.72843,10.17587 22.72843,22.72843 z"
       transform="matrix(0.16198344,0,0,0.16198344,502.36642,760.09545)" />
    <path
       transform="matrix(0.16198344,0,0,0.16198344,471.16023,712.40958)"
       d="m 455.5788,289.58624 c 0,12.55257 -10.17586,22.72843 -22.72843,22.72843 -12.55256,0 -22.72843,-10.17586 -22.72843,-22.72843 0,-12.55256 10.17587,-22.72843 22.72843,-22.72843 12.55257,0 22.72843,10.17587 22.72843,22.72843 z"
       sodipodi:ry="22.728432"
       sodipodi:rx="22.728432"
       sodipodi:cy="289.58624"
       sodipodi:cx="432.85037"
       id="path3797"
       style="fill:url(#linearGradient3912);fill-opacity:1;stroke:none"
       sodipodi:type="arc" />
    <path
       sodipodi:type="arc"
       style="fill:url(#linearGradient3914);fill-opacity:1;stroke:none"
       id="path3801"
       sodipodi:cx="432.85037"
       sodipodi:cy="289.58624"
       sodipodi:rx="22.728432"
       sodipodi:ry="22.728432"
       d="m 455.5788,289.58624 c 0,12.55257 -10.17586,22.72843 -22.72843,22.72843 -12.55256,0 -22.72843,-10.17586 -22.72843,-22.72843 0,-12.55256 10.17587,-22.72843 22.72843,-22.72843 12.55257,0 22.72843,10.17587 22.72843,22.72843 z"
       transform="matrix(0.16198344,0,0,0.16198344,463.44634,735.20063)" />
    <path
       transform="matrix(0.16198344,0,0,0.16198344,480.62727,729.23989)"
       d="m 455.5788,289.58624 c 0,12.55257 -10.17586,22.72843 -22.72843,22.72843 -12.55256,0 -22.72843,-10.17586 -22.72843,-22.72843 0,-12.55256 10.17587,-22.72843 22.72843,-22.72843 12.55257,0 22.72843,10.17587 22.72843,22.72843 z"
       sodipodi:ry="22.728432"
       sodipodi:rx="22.728432"
       sodipodi:cy="289.58624"
       sodipodi:cx="432.85037"
       id="path3805"
       style="fill:url(#linearGradient3916);fill-opacity:1;stroke:none"
       sodipodi:type="arc" />
    <path
       sodipodi:type="arc"
       style="fill:url(#linearGradient3918);fill-opacity:1;stroke:none"
       id="path3809"
       sodipodi:cx="432.85037"
       sodipodi:cy="289.58624"
       sodipodi:rx="22.728432"
       sodipodi:ry="22.728432"
       d="m 455.5788,289.58624 c 0,12.55257 -10.17586,22.72843 -22.72843,22.72843 -12.55256,0 -22.72843,-10.17586 -22.72843,-22.72843 0,-12.55256 10.17587,-22.72843 22.72843,-22.72843 12.55257,0 22.72843,10.17587 22.72843,22.72843 z"
       transform="matrix(0.16198344,0,0,0.16198344,490.09432,747.12209)" />
  </g>
  <g
     inkscape:groupmode="layer"
     id="layer2"
     inkscape:label="Layer">
    <rect
       style="opacity:0.7892562;fill:#1a1a1a;fill-opacity:1;stroke:#ffffff;stroke-width:2;stroke-opacity:1"
       id="rect3833"
       width="320"
       height="480"
       x="0"
       y="-4.1459891e-15"
       rx="5.3571424"
       ry="5.3571424" />
  </g>
</svg>
